<?xml version="1.0" encoding="UTF-8"?>
<svg version="1.1" xmlns="http://www.w3.org/2000/svg" width="500" height="155">
<path d="M0 0 C1.29099116 0.71474415 2.56518815 1.4615011 3.8125 2.25 C4.823125 2.806875 5.83375 3.36375 6.875 3.9375 C11.82606203 7.83514458 17.79134811 12.7383068 18.8125 19.25 C19.4725 19.25 20.1325 19.25 20.8125 19.25 C21.0909375 18.26 21.0909375 18.26 21.375 17.25 C25.42598348 8.79577361 32.99680499 2.63697778 41.58203125 -0.88671875 C51.356663 -3.49880293 62.16360973 -2.72946678 71.23046875 1.7109375 C80.69552005 7.35273812 86.9141316 15.55238572 89.8125 26.25 C90.70111356 36.03508186 90.15948125 44.33936554 85.8125 53.25 C85.38839844 54.13945313 84.96429688 55.02890625 84.52734375 55.9453125 C78.02691461 68.65645806 68.62342765 79.04479529 58.8125 89.25 C57.95398438 90.14976563 57.09546875 91.04953125 56.2109375 91.9765625 C50.43701123 97.89712816 44.27841871 103.1068423 37.8125 108.25 C36.5257398 109.31316586 35.24067993 110.37839192 33.95703125 111.4453125 C32.61735915 112.54708375 31.27751662 113.6486478 29.9375 114.75 C29.30690674 115.27899902 28.67631348 115.80799805 28.02661133 116.35302734 C21.8373697 121.3912235 21.8373697 121.3912235 17.8125 121.25 C12.8530359 118.77337928 6.85035458 115.18905723 4.9296875 109.75 C4.85428526 106.47538842 5.00545976 104.29401936 7.04467773 101.65600586 C9.38357712 99.79580402 10.84578162 99.8536012 13.8125 99.80859375 C15.2665625 99.76895508 15.2665625 99.76895508 16.75 99.72851562 C18.2659375 99.70821289 18.2659375 99.70821289 19.8125 99.6875 C21.81266502 99.65305838 23.8127107 99.61044999 25.8125 99.55859375 C27.1428125 99.54010376 27.1428125 99.54010376 28.5 99.52124023 C31.08644926 99.39525185 31.08644926 99.39525185 33.8125 97.25 C34.23039089 94.33935621 34.23039089 94.33935621 34.10546875 90.9296875 C34.09580078 89.67285156 34.08613281 88.41601562 34.07617188 87.12109375 C34.05103516 85.80238281 34.02589844 84.48367187 34 83.125 C33.98495483 81.78517097 33.97126613 80.44532596 33.95898438 79.10546875 C33.92352872 75.81991158 33.87410849 72.53515418 33.8125 69.25 C33.24329834 69.23018066 32.67409668 69.21036133 32.08764648 69.18994141 C29.47468288 69.09388242 26.86243198 68.98453593 24.25 68.875 C23.35474609 68.8440625 22.45949219 68.813125 21.53710938 68.78125 C16.32522059 68.55215599 11.71875518 68.08079052 6.8125 66.25 C5.64709776 63.91919553 5.64389831 62.41747047 5.56640625 59.8203125 C5.53353516 58.94246094 5.50066406 58.06460938 5.46679688 57.16015625 C5.40586029 55.31131445 5.34853702 53.46234985 5.29492188 51.61328125 C5.26076172 50.73285156 5.22660156 49.85242188 5.19140625 48.9453125 C5.1663501 48.14109863 5.14129395 47.33688477 5.11547852 46.50830078 C4.78175113 44.02080821 4.13556953 42.37524093 2.8125 40.25 C-0.7235396 38.4819802 -4.79321255 39.06535087 -8.6875 39.0625 C-10.00814453 39.04413086 -10.00814453 39.04413086 -11.35546875 39.02539062 C-12.61810547 39.02249023 -12.61810547 39.02249023 -13.90625 39.01953125 C-14.67904297 39.01542236 -15.45183594 39.01131348 -16.24804688 39.00708008 C-18.42489713 39.07823384 -18.42489713 39.07823384 -20.1875 41.25 C-20.49295979 43.72328803 -20.49295979 43.72328803 -20.4609375 46.58984375 C-20.4815625 47.65267578 -20.5021875 48.71550781 -20.5234375 49.81054688 C-20.5494331 52.05786629 -20.56768997 54.30528884 -20.578125 56.55273438 C-20.60132812 57.61685547 -20.62453125 58.68097656 -20.6484375 59.77734375 C-20.66076416 61.24288696 -20.66076416 61.24288696 -20.67333984 62.73803711 C-21.1875 65.25 -21.1875 65.25 -23.07666016 67.04907227 C-25.54456738 68.45314764 -27.36394507 68.92167966 -30.1875 69.25 C-31.30125 69.39566406 -32.415 69.54132813 -33.5625 69.69140625 C-37.1875 69.25 -37.1875 69.25 -39.69921875 66.390625 C-40.45560631 65.11165459 -41.1794914 63.81307091 -41.875 62.5 C-42.2558374 61.81478271 -42.6366748 61.12956543 -43.02905273 60.42358398 C-49.48311616 48.4858573 -52.72129787 36.32680905 -49.33984375 22.87890625 C-45.14932987 11.72787779 -38.53496989 5.280844 -27.82421875 0.34375 C-19.78285945 -2.99192497 -8.15241954 -3.56580957 0 0 Z " fill="#29AADA" transform="translate(108.1875,20.75)"/>
<path d="M0 0 C1.29099116 0.71474415 2.56518815 1.4615011 3.8125 2.25 C4.823125 2.806875 5.83375 3.36375 6.875 3.9375 C11.82606203 7.83514458 17.79134811 12.7383068 18.8125 19.25 C19.4725 19.25 20.1325 19.25 20.8125 19.25 C21.0909375 18.26 21.0909375 18.26 21.375 17.25 C25.42598348 8.79577361 32.99680499 2.63697778 41.58203125 -0.88671875 C51.356663 -3.49880293 62.16360973 -2.72946678 71.23046875 1.7109375 C80.69552005 7.35273812 86.9141316 15.55238572 89.8125 26.25 C90.70111356 36.03508186 90.15948125 44.33936554 85.8125 53.25 C85.38839844 54.13945313 84.96429688 55.02890625 84.52734375 55.9453125 C78.61530367 67.50590341 70.18463471 78.24991601 60.8125 87.25 C60.1525 87.25 59.4925 87.25 58.8125 87.25 C60.10704477 84.46642486 61.54982447 82.23658242 63.5 79.875 C71.95595444 68.55863628 75.46341686 59.23693447 73.8125 45.25 C72.46298206 38.16503082 68.40774225 33.0091394 62.796875 28.703125 C55.23068187 24.12223256 46.38768016 23.94154957 37.8125 25.25 C30.99749061 27.42932549 25.02331406 32.43132117 21.4375 38.625 C21.23125 39.16125 21.025 39.6975 20.8125 40.25 C17.29665 39.07805 16.9875595 37.93927766 15.109375 34.94140625 C11.58465792 30.34441078 6.29527443 26.97024012 0.8125 25.25 C-8.63303033 24.28617037 -17.28900435 24.31007441 -25.1875 30.25 C-27.62651128 32.8756609 -27.62651128 32.8756609 -29.1875 35.25 C-29.8475 35.25 -30.5075 35.25 -31.1875 35.25 C-31.496875 36.19875 -31.80625 37.1475 -32.125 38.125 C-33.1875 41.25 -33.1875 41.25 -34.1875 43.25 C-34.73954979 52.33758877 -34.64590464 60.68633136 -31.1875 69.25 C-33.8984375 69.671875 -33.8984375 69.671875 -37.1875 69.25 C-39.11942042 66.96170591 -40.40952296 65.08754703 -41.8125 62.5 C-42.19784912 61.81478271 -42.58319824 61.12956543 -42.98022461 60.42358398 C-49.50015706 48.50755867 -52.72328748 36.33472162 -49.33984375 22.87890625 C-45.14932987 11.72787779 -38.53496989 5.280844 -27.82421875 0.34375 C-19.78285945 -2.99192497 -8.15241954 -3.56580957 0 0 Z " fill="#65EAB6" transform="translate(108.1875,20.75)"/>
<path d="M0 0 C2.31 0 4.62 0 7 0 C7.06058594 1.20398438 7.12117188 2.40796875 7.18359375 3.6484375 C7.26799732 5.22397077 7.35264541 6.79949096 7.4375 8.375 C7.47681641 9.1690625 7.51613281 9.963125 7.55664062 10.78125 C7.68893404 15.02601221 7.68893404 15.02601221 9 19 C10.32 18.67 11.64 18.34 13 18 C13.495 9.09 13.495 9.09 14 0 C16.31 0 18.62 0 21 0 C21.33 6.27 21.66 12.54 22 19 C25.7763932 19.2981424 25.7763932 19.2981424 28 18 C30.00800456 18.28112064 32.01014051 18.61067967 34 19 C34 18.01 34 17.02 34 16 C32.88625 15.5875 31.7725 15.175 30.625 14.75 C28.28760577 13.73271304 27.14616088 13.17661106 25.5 11.1875 C24.79638157 8.10916936 25.10043799 6.01995819 26 3 C28.17757137 0.90580411 29.49186211 0.06648533 32.5078125 -0.328125 C33.37148438 -0.30234375 34.23515625 -0.2765625 35.125 -0.25 C35.99382812 -0.23453125 36.86265625 -0.2190625 37.7578125 -0.203125 C40 0 40 0 42 1 C41.34 2.65 40.68 4.3 40 6 C37.69 6 35.38 6 33 6 C33.89654341 8.31635791 33.89654341 8.31635791 36.875 9.3125 C40.37870656 11.20450154 41.61662906 12.2821906 43 16 C42.40529343 19.3039254 41.58392843 21.29928589 39.4375 23.875 C34.83892491 25.99741927 29.72706368 25.57568789 25 24 C23.00047382 24.16781909 23.00047382 24.16781909 20.9375 24.5625 C19.638125 24.706875 18.33875 24.85125 17 25 C16.34 24.34 15.68 23.68 15 23 C14.01 23.66 13.02 24.32 12 25 C10.0625 25.30078125 10.0625 25.30078125 8 25.3125 C7.319375 25.32925781 6.63875 25.34601563 5.9375 25.36328125 C3.39057851 24.88573347 2.5438753 24.05694564 1 22 C-0.29381139 14.70760853 -0.10275676 7.38706931 0 0 Z " fill="#1B3C8F" transform="translate(380,83)"/>
<path d="M0 0 C2.31 0 4.62 0 7 0 C8 1 8 1 8.09765625 4.16015625 C8.08605469 5.44792969 8.07445312 6.73570313 8.0625 8.0625 C8.05347656 9.35285156 8.04445312 10.64320312 8.03515625 11.97265625 C8.02355469 12.97167969 8.01195312 13.97070312 8 15 C12.29 15 16.58 15 21 15 C21 10.05 21 5.1 21 0 C23.31 0 25.62 0 28 0 C28 11.55 28 23.1 28 35 C25.69 35 23.38 35 21 35 C21 30.05 21 25.1 21 20 C16.71 20 12.42 20 8 20 C8 24.95 8 29.9 8 35 C5.36 35 2.72 35 0 35 C0 23.45 0 11.9 0 0 Z " fill="#193D97" transform="translate(210,72)"/>
<path d="M0 0 C9.81671976 0.10985139 9.81671976 0.10985139 14.375 3.25 C16.91209759 7.170969 17.72901353 9.97575593 16.8125 14.5 C15.99389473 17.09643513 15.43040453 18.19274866 13.5 20.1875 C9.08381396 22.39559302 5.30429112 22.34479406 0.375 22.25 C0.375 26.54 0.375 30.83 0.375 35.25 C-1.935 35.25 -4.245 35.25 -6.625 35.25 C-6.792247 30.426384 -6.95284308 25.60261089 -7.10717773 20.77856445 C-7.16066959 19.13625066 -7.21600431 17.49399584 -7.27319336 15.85180664 C-7.35490479 13.49638594 -7.43006639 11.14083518 -7.50390625 8.78515625 C-7.53094131 8.04660904 -7.55797638 7.30806183 -7.58583069 6.5471344 C-7.6379438 4.78214384 -7.6368612 3.0157199 -7.625 1.25 C-5.72450779 -0.65049221 -2.53174128 0.03197989 0 0 Z M0.375 6.25 C0.34810784 7.72906892 0.32865379 9.20827483 0.3125 10.6875 C0.30089844 11.51121094 0.28929687 12.33492187 0.27734375 13.18359375 C0.14232652 15.24163938 0.14232652 15.24163938 1.375 16.25 C3.71444736 15.96269945 6.0489143 15.63063221 8.375 15.25 C9.50791596 11.19827836 9.50791596 11.19827836 8.3125 7.375 C5.61599753 5.80928889 3.43369541 6.04608697 0.375 6.25 Z " fill="#193C97" transform="translate(348.625,71.75)"/>
<path d="M0 0 C2.31 0 4.62 0 7 0 C7.33 4.29 7.66 8.58 8 13 C8.66 12.67 9.32 12.34 10 12 C15.88702929 11.43933054 15.88702929 11.43933054 18 12 C21.95662422 16.33809248 21.34784583 21.2990703 21.1875 26.8125 C21.16719727 28.13797852 21.16719727 28.13797852 21.14648438 29.49023438 C21.11129217 31.66042023 21.05748985 33.83029033 21 36 C18.69 36 16.38 36 14 36 C13.67 30.06 13.34 24.12 13 18 C11.02 18.33 9.04 18.66 7 19 C7 24.61 7 30.22 7 36 C5.02 36 3.04 36 1 36 C0.67 24.12 0.34 12.24 0 0 Z " fill="#183D99" transform="translate(316,71)"/>
<path d="M0 0 C2.23046875 1.5390625 2.23046875 1.5390625 4 4 C4.4490016 6.70552245 4.69369634 9.04230591 4.75 11.75 C4.77964844 12.44738281 4.80929687 13.14476563 4.83984375 13.86328125 C4.91018458 15.57490813 4.95739946 17.28745815 5 19 C5.99 19 6.98 19 8 19 C8 20.65 8 22.3 8 24 C3.97963329 24.6958327 0.92129754 25.16186594 -3 24 C-3.66 24.33 -4.32 24.66 -5 25 C-8.5817622 25.38932198 -10.36281721 25.43596718 -13.375 23.375 C-15.48706506 20.28813568 -15.61195145 18.6717087 -15 15 C-13.5625 12.6875 -13.5625 12.6875 -11 11 C-8.00623614 10.38681945 -5.05022821 10.13035163 -2 10 C-2.33 8.35 -2.66 6.7 -3 5 C-5.97 5.66 -8.94 6.32 -12 7 C-12.66 5.35 -13.32 3.7 -14 2 C-9.63764602 -0.25153754 -4.81746841 -1.01692535 0 0 Z M-8 16 C-7.67 17.32 -7.34 18.64 -7 20 C-5.00016466 19.20882096 -5.00016466 19.20882096 -3 18 C-2.67 17.01 -2.34 16.02 -2 15 C-5.7763932 14.7018576 -5.7763932 14.7018576 -8 16 Z " fill="#203E87" transform="translate(280,83)"/>
<path d="M0 0 C2.85861782 1.67333726 3.68383029 2.79712876 4.51953125 5.9765625 C4.875 8.125 4.875 8.125 5 12 C2.31907309 14.68092691 0.60832637 14.38670257 -3.125 14.625 C-4.22070312 14.69976562 -5.31640625 14.77453125 -6.4453125 14.8515625 C-7.70988281 14.92503906 -7.70988281 14.92503906 -9 15 C-8.67 16.32 -8.34 17.64 -8 19 C-6.9275 19 -5.855 19 -4.75 19 C-2.16666667 19 0.41666667 19 3 19 C3.33 20.32 3.66 21.64 4 23 C0.2702915 25.48647234 -3.67239508 25.56034725 -8 25 C-11.67833556 23.36518419 -13.99875804 21.50217343 -16 18 C-17.56912522 13.18054397 -16.58544527 9.70573697 -15.08203125 5.05078125 C-11.84966921 -1.0755367 -6.17052039 -0.89323673 0 0 Z M-7 5 C-7.66 6.32 -8.32 7.64 -9 9 C-6.69 9 -4.38 9 -2 9 C-2.33 7.68 -2.66 6.36 -3 5 C-4.32 5 -5.64 5 -7 5 Z " fill="#1B3B8C" transform="translate(258,83)"/>
<path d="M0 0 C2.6875 -0.3125 2.6875 -0.3125 5 0 C4.67 1.98 4.34 3.96 4 6 C5.65 6 7.3 6 9 6 C8.67 7.65 8.34 9.3 8 11 C6.68 11 5.36 11 4 11 C4.33 15.62 4.66 20.24 5 25 C6.32 25.33 7.64 25.66 9 26 C9 27.32 9 28.64 9 30 C5.95016004 31.52491998 3.3576631 31.23562548 0 31 C-2.04085015 29.48536819 -2.88849702 28.6224184 -3.34057617 26.09887695 C-3.32486572 25.40238037 -3.30915527 24.70588379 -3.29296875 23.98828125 C-3.28330078 23.23095703 -3.27363281 22.47363281 -3.26367188 21.69335938 C-3.23853516 20.90767578 -3.21339844 20.12199219 -3.1875 19.3125 C-3.16719727 18.11657227 -3.16719727 18.11657227 -3.14648438 16.89648438 C-3.11117089 14.93070033 -3.05736447 12.96526418 -3 11 C-4.32 11 -5.64 11 -7 11 C-7 9.68 -7 8.36 -7 7 C-6.401875 6.773125 -5.80375 6.54625 -5.1875 6.3125 C-2.77649533 5.1162851 -2.77649533 5.1162851 -1.5625 2.375 C-1.046875 1.59125 -0.53125 0.8075 0 0 Z " fill="#1D3B89" transform="translate(305,77)"/>
<path d="M0 0 C2.31 0 4.62 0 7 0 C7 11.88 7 23.76 7 36 C4.69 36 2.38 36 0 36 C0 24.12 0 12.24 0 0 Z " fill="#1C3C8D" transform="translate(289,71)"/>
<path d="M0 0 C2.31 0 4.62 0 7 0 C7 11.88 7 23.76 7 36 C5.02 36 3.04 36 1 36 C0.67 24.12 0.34 12.24 0 0 Z " fill="#183F9E" transform="translate(368,71)"/>
<path d="M0 0 C0.02694851 1.95825873 0.04637218 3.91662226 0.0625 5.875 C0.07410156 6.96554688 0.08570313 8.05609375 0.09765625 9.1796875 C0 12 0 12 -1 14 C-3.64 14 -6.28 14 -9 14 C-9 14.66 -9 15.32 -9 16 C-12.375 16.1875 -12.375 16.1875 -16 16 C-18.31567384 12.52648925 -18.59587577 11.08600528 -18 7 C-14.08281083 3.33553271 -9.11830359 3.32337866 -4 3 C-4 2.34 -4 1.68 -4 1 C-1 0 -1 0 0 0 Z M-11 8 C-10.67 9.32 -10.34 10.64 -10 12 C-8.00016466 11.20882096 -8.00016466 11.20882096 -6 10 C-5.67 9.01 -5.34 8.02 -5 7 C-8.7763932 6.7018576 -8.7763932 6.7018576 -11 8 Z " fill="#193D9A" transform="translate(283,91)"/>
<path d="M0 0 C0.66 0 1.32 0 2 0 C3.28923485 3.86770455 3.14505706 7.53437316 3.125 11.5625 C3.13080078 12.73329102 3.13080078 12.73329102 3.13671875 13.92773438 C3.12667749 19.74664502 3.12667749 19.74664502 2 22 C2.10828125 22.70769531 2.2165625 23.41539063 2.328125 24.14453125 C1.80077688 28.73371551 -1.22621749 31.3496844 -4.25 34.6875 C-4.83652344 35.36361328 -5.42304688 36.03972656 -6.02734375 36.73632812 C-8.8484396 39.9219476 -11.05741687 42.25945984 -15 44 C-13.70545523 41.21642486 -12.26267553 38.98658242 -10.3125 36.625 C-1.1388456 24.3028568 1.07814764 15.09406692 0 0 Z " fill="#5EE3C5" transform="translate(182,64)"/>
<path d="M0 0 C2.125 0.9375 2.125 0.9375 4 2 C4 2.66 4 3.32 4 4 C4.66 3.67 5.32 3.34 6 3 C8.88370333 2.92805131 11.74239664 2.90708292 14.625 2.9375 C15.42679688 2.94201172 16.22859375 2.94652344 17.0546875 2.95117188 C19.03649006 2.96296832 21.01825433 2.98090395 23 3 C23 3.66 23 4.32 23 5 C21.08574219 5.07347656 21.08574219 5.07347656 19.1328125 5.1484375 C17.46351928 5.22346191 15.79424954 5.29900988 14.125 5.375 C12.86236328 5.42140625 12.86236328 5.42140625 11.57421875 5.46875 C10.36572266 5.52675781 10.36572266 5.52675781 9.1328125 5.5859375 C8.38918457 5.6173584 7.64555664 5.6487793 6.87939453 5.68115234 C4.75989026 5.85419551 4.75989026 5.85419551 3 8 C2.69454021 10.47328803 2.69454021 10.47328803 2.7265625 13.33984375 C2.7059375 14.40267578 2.6853125 15.46550781 2.6640625 16.56054688 C2.6380669 18.80786629 2.61981003 21.05528884 2.609375 23.30273438 C2.58617188 24.36685547 2.56296875 25.43097656 2.5390625 26.52734375 C2.53084473 27.50437256 2.52262695 28.48140137 2.51416016 29.48803711 C2 32 2 32 0.15380859 33.90454102 C-0.55694824 34.26604248 -1.26770508 34.62754395 -2 35 C-2.99 34.67 -3.98 34.34 -5 34 C-3.68 33.34 -2.36 32.68 -1 32 C-0.7741132 27.58404696 -0.57232166 23.16731435 -0.375 18.75 C-0.31054688 17.49574219 -0.24609375 16.24148437 -0.1796875 14.94921875 C-0.128125 13.74394531 -0.0765625 12.53867188 -0.0234375 11.296875 C0.02893066 10.18666992 0.08129883 9.07646484 0.13525391 7.93261719 C0.00051254 5.01111303 -0.47070516 3.45313506 -2 1 C-1.34 0.67 -0.68 0.34 0 0 Z " fill="#3EA5CC" transform="translate(85,54)"/>
<path d="M0 0 C1.97265625 0.55859375 1.97265625 0.55859375 3.71484375 2.47265625 C5.48740171 6.82147857 5.29522109 10.72694129 5.16015625 15.37109375 C5.14662109 16.25474609 5.13308594 17.13839844 5.11914062 18.04882812 C5.08394842 20.21901398 5.0301461 22.38888408 4.97265625 24.55859375 C2.66265625 24.55859375 0.35265625 24.55859375 -2.02734375 24.55859375 C-2.35734375 18.61859375 -2.68734375 12.67859375 -3.02734375 6.55859375 C-5.00734375 6.88859375 -6.98734375 7.21859375 -9.02734375 7.55859375 C-9.02734375 6.56859375 -9.02734375 5.57859375 -9.02734375 4.55859375 C-5.56234375 4.06359375 -5.56234375 4.06359375 -2.02734375 3.55859375 C-0.43322091 6.74683943 -0.9255964 10.18756037 -0.96484375 13.68359375 C-0.96935547 14.43769531 -0.97386719 15.19179687 -0.97851562 15.96875 C-0.99030876 17.83206502 -1.00824433 19.6953393 -1.02734375 21.55859375 C-0.36734375 21.55859375 0.29265625 21.55859375 0.97265625 21.55859375 C2.17091082 17.96383003 2.11874369 14.67309976 2.09765625 10.93359375 C2.10152344 10.24007812 2.10539062 9.5465625 2.109375 8.83203125 C2.40719791 5.40788954 2.40719791 5.40788954 0.97265625 2.55859375 C-0.54662413 2.48679411 -2.06901857 2.47467368 -3.58984375 2.49609375 C-4.82927734 2.50962891 -4.82927734 2.50962891 -6.09375 2.5234375 C-7.05087891 2.54083984 -7.05087891 2.54083984 -8.02734375 2.55859375 C-5.46063212 -0.00811788 -3.50908392 0.2033301 0 0 Z " fill="#1E3D86" transform="translate(332.02734375,82.44140625)"/>
<path d="M0 0 C2.62087644 3.82293255 1.87394684 7.39189319 1.375 11.75 C0.76064096 18.3549195 1.20069175 22.47373345 5 28 C-0.75 27.125 -0.75 27.125 -3 26 C-3.08071788 23.20775927 -3.14035408 20.41783434 -3.1875 17.625 C-3.21263672 16.8309375 -3.23777344 16.036875 -3.26367188 15.21875 C-3.29004405 13.14413852 -3.15486462 11.06899135 -3 9 C-2.01 8.34 -1.02 7.68 0 7 C-0.99 7 -1.98 7 -3 7 C-3 6.01 -3 5.02 -3 4 C-2.34 4 -1.68 4 -1 4 C-0.67 2.68 -0.34 1.36 0 0 Z " fill="#183D9D" transform="translate(306,79)"/>
<path d="M0 0 C0.33 0 0.66 0 1 0 C1 11.88 1 23.76 1 36 C-0.98 36 -2.96 36 -5 36 C-5 29.07 -5 22.14 -5 15 C-3 17 -3 17 -2 33 C-1.34 22.11 -0.68 11.22 0 0 Z " fill="#203D84" transform="translate(374,71)"/>
<path d="M0 0 C5.44585987 0.48407643 5.44585987 0.48407643 7.8125 2.6875 C9.31845272 5.62014476 9.87011959 7.68804944 10 11 C8.5500457 15.34986291 7.85115325 17.4325645 4 20 C2.68 20 1.36 20 0 20 C0 19.34 0 18.68 0 18 C-0.66 18 -1.32 18 -2 18 C-2 17.34 -2 16.68 -2 16 C-3.65 16 -5.3 16 -7 16 C-7 15.67 -7 15.34 -7 15 C-4.36 14.67 -1.72 14.34 1 14 C1 11.36 1 8.72 1 6 C1.99 6.66 2.98 7.32 4 8 C3.67 9.98 3.34 11.96 3 14 C4.32 14 5.64 14 7 14 C6.98714943 10.5753227 6.85174772 7.3266373 6 4 C3.11320156 1.76113268 3.11320156 1.76113268 0 1 C0 0.67 0 0.34 0 0 Z " fill="#1D3B86" transform="translate(356,73)"/>
<path d="M0 0 C0.72445312 -0.01224609 1.44890625 -0.02449219 2.1953125 -0.03710938 C6.00700298 -0.04765833 7.7536304 0.0232536 11 2.1875 C9.72382812 2.16429687 8.44765625 2.14109375 7.1328125 2.1171875 C5.4635475 2.09843171 3.7942762 2.08023131 2.125 2.0625 C1.28324219 2.04574219 0.44148438 2.02898438 -0.42578125 2.01171875 C-1.63427734 2.00205078 -1.63427734 2.00205078 -2.8671875 1.9921875 C-3.61081543 1.98171387 -4.35444336 1.97124023 -5.12060547 1.96044922 C-7.24490235 2.0209403 -7.24490235 2.0209403 -9 4.1875 C-9.845625 4.3525 -10.69125 4.5175 -11.5625 4.6875 C-12.366875 4.8525 -13.17125 5.0175 -14 5.1875 C-14.33 5.8475 -14.66 6.5075 -15 7.1875 C-15.66 7.1875 -16.32 7.1875 -17 7.1875 C-17 7.8475 -17 8.5075 -17 9.1875 C-17.99 9.1875 -18.98 9.1875 -20 9.1875 C-21.52299523 12.12470508 -22.80100302 15.1043649 -24 18.1875 C-24.66 18.1875 -25.32 18.1875 -26 18.1875 C-26.33 23.7975 -26.66 29.4075 -27 35.1875 C-27.33 35.1875 -27.66 35.1875 -28 35.1875 C-28.79815456 16.91862905 -28.79815456 16.91862905 -21.75 8.5 C-14.76942836 2.62997385 -9.18433707 0.00817112 0 0 Z " fill="#2DB0C7" transform="translate(101,44.8125)"/>
<path d="M0 0 C2.31 0 4.62 0 7 0 C7 4.29 7 8.58 7 13 C6.67 13 6.34 13 6 13 C6 11.02 6 9.04 6 7 C5.01 7 4.02 7 3 7 C2.67 16.57 2.34 26.14 2 36 C1.67 36 1.34 36 1 36 C0.67 24.12 0.34 12.24 0 0 Z " fill="#223D86" transform="translate(316,71)"/>
<path d="M0 0 C0 0.99 0 1.98 0 3 C-1.98 3.66 -3.96 4.32 -6 5 C-5.65213292 6.97536745 -5.65213292 6.97536745 -5 9 C-4.34 9.33 -3.68 9.66 -3 10 C-5.76264289 10.59732819 -8.16032769 11 -11 11 C-12.43060128 8.13879744 -12.38692581 6.15989415 -12 3 C-8.27614035 -0.38532696 -4.8665175 -0.28626574 0 0 Z " fill="#183D9A" transform="translate(419,84)"/>
<path d="M0 0 C1.14915894 0.00241699 1.14915894 0.00241699 2.3215332 0.00488281 C8.25596006 0.13341271 12.8197582 1.13614378 17.875 4.375 C18.79925781 4.94734375 18.79925781 4.94734375 19.7421875 5.53125 C21.14735327 6.43780856 22.51661127 7.39974655 23.875 8.375 C23.215 8.705 22.555 9.035 21.875 9.375 C19.73828125 8.37890625 19.73828125 8.37890625 17.1875 6.9375 C12.80101681 4.63348863 9.87406157 4.07505631 4.875 4.375 C2.5625 3.3125 2.5625 3.3125 0.875 2.375 C-0.115 2.87 -0.115 2.87 -1.125 3.375 C-2.83733688 3.2879796 -4.54675406 3.13402838 -6.25 2.9375 C-7.16007812 2.83566406 -8.07015625 2.73382812 -9.0078125 2.62890625 C-9.70648438 2.54511719 -10.40515625 2.46132813 -11.125 2.375 C-7.37742746 -0.12338169 -4.34758582 -0.00934061 0 0 Z " fill="#73E2B8" transform="translate(94.125,18.625)"/>
<path d="M0 0 C3.28560634 2.49706082 3.95805055 3.73216888 4.609375 7.890625 C4.67539233 9.34300623 4.7217497 10.79639364 4.75 12.25 C4.77964844 12.99507812 4.80929688 13.74015625 4.83984375 14.5078125 C4.9102343 16.33796672 4.95741832 18.16898769 5 20 C4.34 20 3.68 20 3 20 C3 15.05 3 10.1 3 5 C-1.29 5 -5.58 5 -10 5 C-10 9.95 -10 14.9 -10 20 C-10.33 20 -10.66 20 -11 20 C-11 15.05 -11 10.1 -11 5 C-11.66 5 -12.32 5 -13 5 C-12.67 4.01 -12.34 3.02 -12 2 C-9.36 2.66 -6.72 3.32 -4 4 C-3.67 3.34 -3.34 2.68 -3 2 C-2.01 1.34 -1.02 0.68 0 0 Z " fill="#1C3A89" transform="translate(228,87)"/>
<path d="M0 0 C0.67297119 -0.02215576 1.34594238 -0.04431152 2.03930664 -0.06713867 C7.05387914 -0.04545738 9.89519891 1.30619762 13.75 4.4375 C15.125 6.6875 15.125 6.6875 15.75 8.4375 C15.234375 8.169375 14.71875 7.90125 14.1875 7.625 C13.383125 7.233125 12.57875 6.84125 11.75 6.4375 C10.7084375 5.92574219 9.666875 5.41398437 8.59375 4.88671875 C4.70567818 3.23500955 1.00110718 2.97816563 -3.1875 3.0625 C-3.88681641 3.06830078 -4.58613281 3.07410156 -5.30664062 3.08007812 C-10.58351362 3.21286058 -14.55939621 4.0921981 -19.25 6.4375 C-18.25 3.4375 -18.25 3.4375 -16.52734375 2.48828125 C-11.00478826 0.74577209 -5.7576619 0.10280355 0 0 Z " fill="#5BE1C9" transform="translate(104.25,42.5625)"/>
<path d="M0 0 C3.06254483 1.83951556 5.1795625 3.66195312 7.40625 6.4453125 C5.42625 5.7853125 3.44625 5.1253125 1.40625 4.4453125 C1.40625 3.7853125 1.40625 3.1253125 1.40625 2.4453125 C0.08625 2.4453125 -1.23375 2.4453125 -2.59375 2.4453125 C-2.59375 1.7853125 -2.59375 1.1253125 -2.59375 0.4453125 C-3.64175781 0.31253906 -4.68976563 0.17976563 -5.76953125 0.04296875 C-7.14845778 -0.13525985 -8.52736293 -0.31365391 -9.90625 -0.4921875 C-10.59654297 -0.57919922 -11.28683594 -0.66621094 -11.99804688 -0.75585938 C-14.99517288 -1.14678885 -17.71825119 -1.5961879 -20.59375 -2.5546875 C-20.92375 -1.8946875 -21.25375 -1.2346875 -21.59375 -0.5546875 C-25.22375 -0.5546875 -28.85375 -0.5546875 -32.59375 -0.5546875 C-23.46908101 -6.63780016 -9.38772919 -4.51333134 0 0 Z " fill="#7DE1BB" transform="translate(179.59375,22.5546875)"/>
<path d="M0 0 C2.94289954 2.94289954 2.97327103 5.11473658 3.09765625 9.234375 C3.08605469 10.39453125 3.07445312 11.5546875 3.0625 12.75 C3.05347656 13.92046875 3.04445313 15.0909375 3.03515625 16.296875 C3.02355469 17.18890625 3.01195312 18.0809375 3 19 C1.68 19 0.36 19 -1 19 C-1.02683987 16.02077407 -1.04676037 13.04178705 -1.0625 10.0625 C-1.07087891 9.21236328 -1.07925781 8.36222656 -1.08789062 7.48632812 C-1.09111328 6.67744141 -1.09433594 5.86855469 -1.09765625 5.03515625 C-1.10289307 4.2862915 -1.10812988 3.53742676 -1.11352539 2.76586914 C-1 1 -1 1 0 0 Z " fill="#183CA0" transform="translate(292,88)"/>
<path d="M0 0 C0.33 0.66 0.66 1.32 1 2 C0.67 2.66 0.34 3.32 0 4 C-0.55204979 13.08758877 -0.45840464 21.43633136 3 30 C1.02 30 -0.96 30 -3 30 C-3 28.68 -3 27.36 -3 26 C-2.34 26 -1.68 26 -1 26 C-1.495 24.6078125 -1.495 24.6078125 -2 23.1875 C-4.09068753 15.82529319 -3.63642762 8.13386296 -1 1 C-0.67 0.67 -0.34 0.34 0 0 Z " fill="#5CE3CD" transform="translate(74,60)"/>
<path d="M0 0 C-0.99 0.495 -0.99 0.495 -2 1 C-2.99 0.67 -3.98 0.34 -5 0 C-7.78445155 -0.14880933 -10.52742385 -0.23107 -13.3125 -0.25 C-14.05951172 -0.270625 -14.80652344 -0.29125 -15.57617188 -0.3125 C-20.51882912 -0.34721577 -23.62507786 0.48491617 -28 3 C-28.66 3 -29.32 3 -30 3 C-29.375 1.125 -29.375 1.125 -28 -1 C-19.0045756 -4.77014111 -8.70261571 -4.17725554 0 0 Z " fill="#5BE2CA" transform="translate(168,46)"/>
<path d="M0 0 C0.99 0.33 1.98 0.66 3 1 C-3.78996716 7.29943721 -10.67953048 13.31512345 -18 19 C-18.33 18.34 -18.66 17.68 -19 17 C-18.67 16.34 -18.34 15.68 -18 15 C-17.34 15 -16.68 15 -16 15 C-16 14.34 -16 13.68 -16 13 C-15.01 13 -14.02 13 -13 13 C-13 11.68 -13 10.36 -13 9 C-11.35 9 -9.7 9 -8 9 C-8 8.34 -8 7.68 -8 7 C-7.34 7 -6.68 7 -6 7 C-6 6.34 -6 5.68 -6 5 C-5.34 5 -4.68 5 -4 5 C-4 4.34 -4 3.68 -4 3 C-3.01 3 -2.02 3 -1 3 C-0.67 2.01 -0.34 1.02 0 0 Z " fill="#3CA5C4" transform="translate(157,116)"/>
<path d="M0 0 C0.86882812 0.01546875 1.73765625 0.0309375 2.6328125 0.046875 C4.875 0.25 4.875 0.25 6.875 1.25 C6.215 2.9 5.555 4.55 4.875 6.25 C1.905 5.755 1.905 5.755 -1.125 5.25 C-1.125 4.92 -1.125 4.59 -1.125 4.25 C0.525 4.25 2.175 4.25 3.875 4.25 C3.875 3.26 3.875 2.27 3.875 1.25 C2.22828588 1.55782496 0.58264424 1.87139234 -1.0625 2.1875 C-2.43728516 2.44853516 -2.43728516 2.44853516 -3.83984375 2.71484375 C-6.07789844 3.02714988 -6.07789844 3.02714988 -7.125 4.25 C-7.19648199 5.60243917 -7.20899454 6.95834367 -7.1875 8.3125 C-7.166875 9.611875 -7.14625 10.91125 -7.125 12.25 C-6.135 12.25 -5.145 12.25 -4.125 12.25 C-4.125 12.91 -4.125 13.57 -4.125 14.25 C-6.70047398 13.90660347 -7.81394113 13.64993284 -9.4375 11.5625 C-10.37768845 8.40004793 -10.06303639 6.39912216 -9.125 3.25 C-6.14504844 0.38414568 -4.08014487 -0.12179537 0 0 Z " fill="#1E397B" transform="translate(415.125,82.75)"/>
<path d="M0 0 C0.33 0 0.66 0 1 0 C1 5.28 1 10.56 1 16 C1.99 16.33 2.98 16.66 4 17 C5.38576923 18.62332967 6.72641268 20.28724465 8 22 C5.625 22.125 5.625 22.125 3 22 C2.34 21.34 1.68 20.68 1 20 C0.01 20.33 -0.98 20.66 -2 21 C-2 20.34 -2 19.68 -2 19 C-1.34 19 -0.68 19 0 19 C0 18.34 0 17.68 0 17 C-0.99 16.67 -1.98 16.34 -3 16 C-2.34 15.67 -1.68 15.34 -1 15 C-0.68758629 12.45058627 -0.48696579 9.99638487 -0.375 7.4375 C-0.33632813 6.72658203 -0.29765625 6.01566406 -0.2578125 5.28320312 C-0.16328217 3.52257575 -0.08054183 1.76132272 0 0 Z " fill="#173A87" transform="translate(394,86)"/>
<path d="M0 0 C-1.03798017 2.50845207 -1.69597823 3.80048572 -4 5.3125 C-6.8800285 7.74252405 -7.18750898 10.411498 -8 14 C-8.99 14 -9.98 14 -11 14 C-11 9.15854118 -9.32989474 6.94557115 -6.0625 3.625 C-2.32209738 0 -2.32209738 0 0 0 Z " fill="#2FB1CA" transform="translate(140,49)"/>
<path d="M0 0 C3.07167963 4.60751944 3.18260451 8.38454759 3.1875 13.75 C3.19974609 14.4409375 3.21199219 15.131875 3.22460938 15.84375 C3.238006 20.59508765 2.49414856 24.48802571 1 29 C0.67 29 0.34 29 0 29 C0.0721875 28.40574219 0.144375 27.81148437 0.21875 27.19921875 C0.93345317 20.81652235 1.3963246 14.42278979 1 8 C0.67 7.67 0.34 7.34 0 7 C-0.04092937 4.66702567 -0.04241723 2.33294775 0 0 Z " fill="#76DDB6" transform="translate(195,41)"/>
<path d="M0 0 C3.96 0 7.92 0 12 0 C12.33 1.65 12.66 3.3 13 5 C11.68 4.67 10.36 4.34 9 4 C9 3.34 9 2.68 9 2 C5.7 2.33 2.4 2.66 -1 3 C-0.67 2.01 -0.34 1.02 0 0 Z " fill="#183C9F" transform="translate(269,85)"/>
<path d="M0 0 C-0.66 0.66 -1.32 1.32 -2 2 C-3.32 2 -4.64 2 -6 2 C-6.33 4.97 -6.66 7.94 -7 11 C-6.34 11 -5.68 11 -5 11 C-5 10.34 -5 9.68 -5 9 C-4.01 9.33 -3.02 9.66 -2 10 C-2 11.65 -2 13.3 -2 15 C-4 14 -6 13 -8 12 C-8.08131463 10.56344146 -8.13933559 9.1255517 -8.1875 7.6875 C-8.22230469 6.88699219 -8.25710937 6.08648437 -8.29296875 5.26171875 C-8 3 -8 3 -6.65625 1.21875 C-4.39462293 -0.44546615 -2.73668179 -0.22189312 0 0 Z " fill="#39A4C9" transform="translate(122,121)"/>
<path d="M0 0 C1 3 1 3 0.14453125 4.90234375 C-4.64981949 12.22743682 -4.64981949 12.22743682 -8 15 C-8.66 15 -9.32 15 -10 15 C-8.61765196 12.0292809 -6.99846608 9.53050974 -5 6.9375 C-3.24878722 4.65654536 -1.59742149 2.39613223 0 0 Z " fill="#5DD4C6" transform="translate(177,93)"/>
<path d="M0 0 C1.32 0.33 2.64 0.66 4 1 C5.35439668 3.70879335 5.06501451 6.00933268 5 9 C3.68 9 2.36 9 1 9 C0.67 6.03 0.34 3.06 0 0 Z " fill="#143B9E" transform="translate(256,86)"/>
<path d="M0 0 C1.98 0 3.96 0 6 0 C6 1.98 6 3.96 6 6 C4.68 6 3.36 6 2 6 C1.67 6.99 1.34 7.98 1 9 C0.67 6.03 0.34 3.06 0 0 Z " fill="#1B3D92" transform="translate(368,71)"/>
<path d="M0 0 C0.66 0.33 1.32 0.66 2 1 C0.31198375 2.95454513 -0.87112791 3.95123759 -3.3125 4.875 C-7.25653038 6.52598946 -11.0453456 9.09069119 -13 13 C-13.66 12.67 -14.32 12.34 -15 12 C-10.94726676 6.48510417 -6.47239827 2.48540094 0 0 Z " fill="#7CDEB8" transform="translate(80,21)"/>
<path d="M0 0 C1.21236328 0.01353516 1.21236328 0.01353516 2.44921875 0.02734375 C3.37154297 0.04474609 3.37154297 0.04474609 4.3125 0.0625 C4.3125 1.0525 4.3125 2.0425 4.3125 3.0625 C2.87839632 3.31204005 1.43989928 3.53642642 0 3.75 C-0.80050781 3.87761719 -1.60101563 4.00523438 -2.42578125 4.13671875 C-4.6875 4.0625 -4.6875 4.0625 -6.48046875 2.58203125 C-6.87878906 2.08058594 -7.27710938 1.57914062 -7.6875 1.0625 C-4.80538698 0.10179566 -2.98899956 -0.04331883 0 0 Z " fill="#173D9D" transform="translate(255.6875,102.9375)"/>
<path d="M0 0 C1.32 0 2.64 0 4 0 C4 4.95 4 9.9 4 15 C2.34934234 11.69868468 1.74679986 10.3529601 1.4375 6.9375 C1.15059903 3.10258195 1.15059903 3.10258195 0 0 Z " fill="#173D9F" transform="translate(395,85)"/>
<path d="M0 0 C0.66 0 1.32 0 2 0 C2.103125 0.598125 2.20625 1.19625 2.3125 1.8125 C3.08876455 4.28243264 4.07088921 5.32251235 6 7 C5.34 7.66 4.68 8.32 4 9 C1.875 8.625 1.875 8.625 0 8 C-1.125 2.25 -1.125 2.25 0 0 Z " fill="#153FA2" transform="translate(383,96)"/>
<path d="M0 0 C0.33 0.66 0.66 1.32 1 2 C1.66 2.33 2.32 2.66 3 3 C2.34 3 1.68 3 1 3 C1 3.66 1 4.32 1 5 C0.34 5 -0.32 5 -1 5 C-1.33 5.99 -1.66 6.98 -2 8 C-2.66 7.67 -3.32 7.34 -4 7 C-3.34 6.01 -2.68 5.02 -2 4 C-3.65 4 -5.3 4 -7 4 C-7.33 4.99 -7.66 5.98 -8 7 C-8 5.02 -8 3.04 -8 1 C-5.36 1.33 -2.72 1.66 0 2 C0 1.34 0 0.68 0 0 Z " fill="#1A3A88" transform="translate(279,95)"/>
<path d="M0 0 C1.32 0 2.64 0 4 0 C4 2.31 4 4.62 4 7 C2.68 7 1.36 7 0 7 C0 4.69 0 2.38 0 0 Z " fill="#163E9E" transform="translate(343,100)"/>
<path d="M0 0 C0.33 0 0.66 0 1 0 C1.08112454 2.58396679 1.14054748 5.16537568 1.1875 7.75 C1.22520508 8.84441406 1.22520508 8.84441406 1.26367188 9.9609375 C1.30981636 13.34486604 1.25324128 15.57858557 -0.51171875 18.515625 C-1.00285156 19.00546875 -1.49398437 19.4953125 -2 20 C-2.625 17.625 -2.625 17.625 -3 15 C-2.34 14.34 -1.68 13.68 -1 13 C-0.53513282 9.87803664 -0.53513282 9.87803664 -0.375 6.375 C-0.30023438 5.18648438 -0.22546875 3.99796875 -0.1484375 2.7734375 C-0.09945312 1.85820313 -0.05046875 0.94296875 0 0 Z " fill="#2DB1C2" transform="translate(182,66)"/>
<path d="M0 0 C1.125 1.6875 1.125 1.6875 2 4 C1.24101587 7.18773336 0.69126741 8.57304072 -2.125 10.3125 C-3.053125 10.6528125 -3.053125 10.6528125 -4 11 C-4 9.68 -4 8.36 -4 7 C-3.01 6.67 -2.02 6.34 -1 6 C-1.020625 5.195625 -1.04125 4.39125 -1.0625 3.5625 C-1 1 -1 1 0 0 Z " fill="#203C8B" transform="translate(421,96)"/>
<path d="M0 0 C0.33 0 0.66 0 1 0 C1.33 4.29 1.66 8.58 2 13 C1.01 13.66 0.02 14.32 -1 15 C-1.99 14.67 -2.98 14.34 -4 14 C-3.01 13.34 -2.02 12.68 -1 12 C-0.41518879 9.11404054 -0.41518879 9.11404054 -0.3125 5.875 C-0.24675781 4.77929688 -0.18101562 3.68359375 -0.11328125 2.5546875 C-0.07589844 1.71164063 -0.03851563 0.86859375 0 0 Z " fill="#3FA4C7" transform="translate(143,106)"/>
<path d="M0 0 C0.66 0 1.32 0 2 0 C2.66 1.98 3.32 3.96 4 6 C2.02 6 0.04 6 -2 6 C-2 4.68 -2 3.36 -2 2 C-1.34 2 -0.68 2 0 2 C0 1.34 0 0.68 0 0 Z " fill="#5FDDC1" transform="translate(73,84)"/>
<path d="M0 0 C6.70212766 1.93617021 6.70212766 1.93617021 9 5 C9 5.66 9 6.32 9 7 C9.99 7 10.98 7 12 7 C11.67 8.32 11.34 9.64 11 11 C10.62488281 10.52949219 10.24976563 10.05898438 9.86328125 9.57421875 C6.84881972 5.90675044 4.25602783 3.2531912 0 1 C0 0.67 0 0.34 0 0 Z " fill="#5ADFCD" transform="translate(168,47)"/>
<path d="M0 0 C1.65 0 3.3 0 5 0 C4.04578192 1.14926266 3.08647955 2.29430541 2.125 3.4375 C1.59132812 4.07558594 1.05765625 4.71367188 0.5078125 5.37109375 C-1 7 -1 7 -3 8 C-3 6.68 -3 5.36 -3 4 C-2.01 4 -1.02 4 0 4 C0 2.68 0 1.36 0 0 Z " fill="#42B3C3" transform="translate(163,108)"/>
<path d="M0 0 C0.66 0.33 1.32 0.66 2 1 C1.67 1.99 1.34 2.98 1 4 C0.34 4 -0.32 4 -1 4 C-1.33 5.32 -1.66 6.64 -2 8 C-3.32 8.33 -4.64 8.66 -6 9 C-5.67 7.68 -5.34 6.36 -5 5 C-5 5.66 -5 6.32 -5 7 C-4.34 7 -3.68 7 -3 7 C-2.690625 6.21625 -2.38125 5.4325 -2.0625 4.625 C-1 2 -1 2 0 0 Z " fill="#74E5B8" transform="translate(132,33)"/>
<path d="M0 0 C0.66 0.33 1.32 0.66 2 1 C2.625 3.0625 2.625 3.0625 3 5 C2.34 5 1.68 5 1 5 C0.67 5.99 0.34 6.98 0 8 C-3 3.25 -3 3.25 -3 1 C-2.01 0.67 -1.02 0.34 0 0 Z " fill="#6FE4AE" transform="translate(70,81)"/>
<path d="M0 0 C3.40320742 1.01176437 4.75725331 1.64843582 6.8125 4.625 C7.204375 5.40875 7.59625 6.1925 8 7 C4.59679258 5.98823563 3.24274669 5.35156418 1.1875 2.375 C0.795625 1.59125 0.40375 0.8075 0 0 Z " fill="#2DAEC6" transform="translate(169,49)"/>
<path d="M0 0 C-1.26941497 3.91402949 -2.51167694 5.79072873 -6 8 C-5.40138258 5.64828869 -4.73075648 3.3140622 -4 1 C-2 0 -2 0 0 0 Z " fill="#6ADBB4" transform="translate(182,91)"/>
<path d="M0 0 C2.5 2.3125 2.5 2.3125 5 5 C5 5.99 5 6.98 5 8 C3.0625 7.375 3.0625 7.375 1 6 C0.25 2.875 0.25 2.875 0 0 Z " fill="#77DFB6" transform="translate(187,29)"/>
<path d="M0 0 C4.31392226 0.4793247 6.16569547 1.7457985 9 5 C4.98525763 5 3.18024863 3.33218233 0 1 C0 0.67 0 0.34 0 0 Z " fill="#5AE0CB" transform="translate(111,45)"/>
<path d="M0 0 C0.33 1.32 0.66 2.64 1 4 C-1.475 5.485 -1.475 5.485 -4 7 C-3.43628586 3.73045798 -2.50037734 2.17424117 0 0 Z " fill="#1C39A4" transform="translate(216,92)"/>
<path d="M0 0 C3.3 0.33 6.6 0.66 10 1 C10 1.33 10 1.66 10 2 C7.69 2 5.38 2 3 2 C3 2.66 3 3.32 3 4 C2.34 4 1.68 4 1 4 C0.67 2.68 0.34 1.36 0 0 Z " fill="#1E388A" transform="translate(346,92)"/>
<path d="M0 0 C1.9375 0.8125 1.9375 0.8125 4 2 C4.33 2.99 4.66 3.98 5 5 C4.34 5.66 3.68 6.32 3 7 C0 2.25 0 2.25 0 0 Z " fill="#73E3B8" transform="translate(63,75)"/>
</svg>
